<svg xmlns="http://www.w3.org/2000/svg" version="1.1" xmlns:xlink="http://www.w3.org/1999/xlink" xmlns:svgjs="http://svgjs.dev/svgjs" width="1500" height="1500" viewBox="0 0 1500 1500"><rect width="1500" height="1500" fill="#000000"></rect><g transform="matrix(0.6666666666666666,0,0,0.6666666666666666,249.62502304997236,90.20134952766534)"><svg viewBox="0 0 187 247" data-background-color="#000000" preserveAspectRatio="xMidYMid meet" height="1981" width="1500" xmlns="http://www.w3.org/2000/svg" xmlns:xlink="http://www.w3.org/1999/xlink"><g id="tight-bounds" transform="matrix(1,0,0,1,0.0701206896551696,-0.09999999999999432)"><svg viewBox="0 0 186.85975862068966 247.2" height="247.2" width="186.85975862068966"><rect width="186.85975862068966" height="247.2" fill="url(#29ddc93d-e368-4e8c-b408-a31df628f611)" mask="url(#3f1e5703-0a88-40c6-9f1d-f78c6a452828)" data-fill-palette-color="tertiary"></rect><g><svg viewBox="0 0 186.85975862068966 247.2" height="247.2" width="186.85975862068966"><g><svg viewBox="0 0 186.85975862068966 247.2" height="247.2" width="186.85975862068966"><g id="textblocktransform"><svg viewBox="0 0 186.85975862068966 247.2" height="247.2" width="186.85975862068966" id="textblock"><g><svg viewBox="0 0 186.85975862068966 247.2" height="247.2" width="186.85975862068966"><rect width="186.85975862068966" height="247.2" x="0" y="0" opacity="1" fill="url(#29ddc93d-e368-4e8c-b408-a31df628f611)" data-fill-palette-color="tertiary"></rect><g transform="matrix(1,0,0,1,23.607599999999998,23.607599999999998)"><svg width="139.64455862068965" viewBox="6.25 -34.8 24.3 34.8" height="199.9848" data-palette-color="#000000"><path d="M6.25 0L6.25-34.8 17.55-34.8Q30.55-34.8 30.55-23.4L30.55-23.4Q30.55-17.65 27.33-14.63 24.1-11.6 17.9-11.6L17.9-11.6 10.65-11.6 10.65 0 6.25 0ZM10.65-15.7L17.75-15.7Q22.05-15.7 23.93-17.45 25.8-19.2 25.8-23.2L25.8-23.2Q25.8-27.2 23.93-28.9 22.05-30.6 17.55-30.6L17.55-30.6 10.65-30.6 10.65-15.7Z" opacity="1" transform="matrix(1,0,0,1,0,0)" fill="#000000" class="wordmark-text-0" data-fill-palette-color="quaternary" id="text-0"></path></svg></g></svg></g></svg></g></svg></g></svg></g><defs></defs><mask id="3f1e5703-0a88-40c6-9f1d-f78c6a452828"><g id="SvgjsG2098"><svg viewBox="0 0 186.85975862068966 247.2" height="247.2" width="186.85975862068966"><g><svg viewBox="0 0 186.85975862068966 247.2" height="247.2" width="186.85975862068966"><g><svg viewBox="0 0 186.85975862068966 247.2" height="247.2" width="186.85975862068966"><g id="SvgjsG2097"><svg viewBox="0 0 186.85975862068966 247.2" height="247.2" width="186.85975862068966" id="SvgjsSvg2096"><g><svg viewBox="0 0 186.85975862068966 247.2" height="247.2" width="186.85975862068966"><rect width="186.85975862068966" height="247.2" x="0" y="0" opacity="1" fill="white"></rect><g transform="matrix(1,0,0,1,23.607599999999998,23.607599999999998)"><svg width="139.64455862068965" viewBox="6.25 -34.8 24.3 34.8" height="199.9848" data-palette-color="#000000"><path d="M6.25 0L6.25-34.8 17.55-34.8Q30.55-34.8 30.55-23.4L30.55-23.4Q30.55-17.65 27.33-14.63 24.1-11.6 17.9-11.6L17.9-11.6 10.65-11.6 10.65 0 6.25 0ZM10.65-15.7L17.75-15.7Q22.05-15.7 23.93-17.45 25.8-19.2 25.8-23.2L25.8-23.2Q25.8-27.2 23.93-28.9 22.05-30.6 17.55-30.6L17.55-30.6 10.65-30.6 10.65-15.7Z" opacity="1" transform="matrix(1,0,0,1,0,0)" fill="black" class="wordmark-text-0" id="SvgjsPath2095"></path></svg></g></svg></g></svg></g></svg></g></svg></g><defs><mask></mask></defs></svg><rect width="186.85975862068966" height="247.2" fill="black" stroke="none" visibility="hidden"></rect></g></mask><linearGradient x1="0" x2="1" y1="0.5" y2="0.5" id="29ddc93d-e368-4e8c-b408-a31df628f611"><stop stop-color="#ffa62e" offset="0"></stop><stop stop-color="#f71b3d" offset="1"></stop></linearGradient></svg><rect width="186.85975862068966" height="247.2" fill="none" stroke="none" visibility="hidden"></rect></g></svg></g></svg>